<?xml version="1.0" encoding="utf-8"?>
<!-- Generator: Adobe Illustrator 17.0.1, SVG Export Plug-In . SVG Version: 6.00 Build 0)  -->
<!DOCTYPE svg PUBLIC "-//W3C//DTD SVG 1.1//EN" "http://www.w3.org/Graphics/SVG/1.1/DTD/svg11.dtd">
<svg version="1.1" id="Layer_1" xmlns="http://www.w3.org/2000/svg" xmlns:xlink="http://www.w3.org/1999/xlink" x="0px" y="0px"
	 width="88.414px" height="127.373px" viewBox="0 0 88.414 127.373" enable-background="new 0 0 88.414 127.373"
	 xml:space="preserve">
<path fill="#00AEEF" d="M64.176,0c2.775,0,5.018,2.251,5.018,5.035v4.953c0,6.66-2.554,12.935-7.188,17.652
	c-3.265,3.346-7.395,5.663-11.932,6.725l-0.457,0.105v12.797l0.457,0.098c4.537,1.045,8.659,3.379,11.947,6.732
	c4.619,4.709,7.173,10.977,7.173,17.636v4.962c0,2.773-2.243,5.043-5.018,5.043c-2.791,0-5.036-2.27-5.036-5.043v-4.962
	c0-3.99-1.525-7.745-4.3-10.576c-2.742-2.791-6.382-4.342-10.25-4.359c-3.86,0.017-7.509,1.568-10.259,4.359
	c-2.766,2.831-4.292,6.586-4.292,10.576v4.962c0,2.773-2.253,5.043-5.018,5.043c-2.775,0-5.044-2.27-5.044-5.043v-4.962
	c0-6.643,2.555-12.919,7.189-17.636c3.272-3.353,7.402-5.687,11.923-6.732l0.474-0.098V34.47l-0.474-0.105
	c-4.537-1.062-8.658-3.379-11.923-6.725c-4.635-4.725-7.189-11.001-7.189-17.652V5.035C19.977,2.251,22.246,0,25.021,0
	c2.766,0,5.018,2.251,5.018,5.035v4.953c0,3.991,1.526,7.762,4.292,10.593c2.75,2.791,6.399,4.325,10.267,4.341
	c3.86-0.016,7.491-1.55,10.242-4.341c2.774-2.831,4.3-6.602,4.3-10.593V5.035C59.14,2.251,61.385,0,64.176,0 M44.59,61.646
	c-5.378,0-9.728,4.366-9.728,9.745c0,5.386,4.35,9.743,9.728,9.743c5.369,0,9.728-4.357,9.728-9.743
	C54.318,66.012,49.959,61.646,44.59,61.646"/>
<path fill="#00AEEF" d="M88.251,123.896c0.457,1.143-0.073,2.457-1.208,2.939c-0.27,0.122-0.571,0.171-0.865,0.171
	c-0.914,0-1.714-0.539-2.089-1.379l-1.763-4.309h-9.924l-1.763,4.309c-0.465,1.11-1.828,1.665-2.938,1.208
	c-1.142-0.482-1.689-1.804-1.216-2.939l8.756-21.192c0.531-1.256,1.453-1.542,2.122-1.542c0.946,0,1.722,0.538,2.122,1.551
	L88.251,123.896z M80.49,116.838l-3.126-7.549l-3.109,7.549H80.49z M45.749,114.324c0,6.504-3.558,13.049-11.507,13.049h-0.049
	c-3.762,0-6.863-1.322-8.952-3.835c-1.901-2.302-2.914-5.501-2.905-9.304c0.024-8.17,4.692-13.466,11.899-13.466
	C41.449,100.801,45.749,105.861,45.749,114.324 M41.007,114.324c0-5.835-2.262-8.789-6.749-8.814c-6.234,0-7.165,5.493-7.198,8.741
	c-0.008,2.669,0.621,4.831,1.813,6.251c1.191,1.404,2.979,2.138,5.329,2.146h0.04C39.22,122.648,41.007,118.347,41.007,114.324
	 M64.951,101.193H49.74c-1.266,0-2.285,1.027-2.285,2.302c0,1.257,1.02,2.293,2.285,2.293h5.279v18.876
	c0,1.264,1.029,2.302,2.311,2.302c0.628,0,1.199-0.246,1.622-0.678c0.458-0.434,0.687-1.021,0.687-1.624l-0.008-18.876h5.32
	c1.266,0,2.293-1.036,2.293-2.293C67.244,102.221,66.216,101.193,64.951,101.193 M18.973,101.487
	c-1.103-0.628-2.505-0.253-3.142,0.849l-5.77,9.997l-5.769-9.997c-0.637-1.11-2.049-1.477-3.143-0.849
	c-1.102,0.637-1.477,2.057-0.84,3.149l7.45,12.895v7.206c0,1.265,1.036,2.302,2.293,2.302c1.273,0,2.31-1.037,2.31-2.302v-7.206
	l7.434-12.895C20.451,103.544,20.075,102.124,18.973,101.487"/>
</svg>
